<?xml version="1.0" standalone="no"?>
<!DOCTYPE svg PUBLIC "-//W3C//DTD SVG 20010904//EN"
 "http://www.w3.org/TR/2001/REC-SVG-20010904/DTD/svg10.dtd">
<svg version="1.0" xmlns="http://www.w3.org/2000/svg"
  viewBox="0 0 512.000000 512.000000"
 preserveAspectRatio="xMidYMid meet">

<g transform="translate(0.000000,512.000000) scale(0.100000,-0.100000)"
fill="#54B04E" stroke="none">
<path d="M651 4945 c-183 -40 -350 -175 -433 -351 -61 -131 -59 -25 -56 -2067
l3 -1862 22 -65 c66 -192 221 -347 413 -413 l65 -22 1862 -3 c2082 -3 1939 -7
2092 70 147 74 263 212 314 373 l22 70 0 1885 0 1885 -22 70 c-68 215 -254
386 -468 430 -102 21 -3716 21 -3814 0z m3809 -334 c61 -32 116 -86 148 -146
l27 -50 2 -1025 3 -1025 -243 246 c-258 262 -281 279 -395 300 -74 14 -165 -3
-234 -45 -35 -21 -132 -116 -292 -286 -132 -140 -243 -256 -246 -258 -4 -1
-223 228 -487 510 -264 282 -501 533 -527 556 -66 61 -125 85 -221 90 -140 7
-118 21 -853 -554 l-657 -514 -3 982 c-3 1138 -9 1052 92 1153 104 104 -101
94 2001 92 l1840 -2 45 -24z"/>
<path d="M3171 3855 c-70 -20 -111 -46 -160 -101 -51 -58 -75 -130 -75 -216 0
-130 91 -252 218 -294 66 -22 175 -15 236 15 61 31 117 86 147 146 34 66 42
172 19 241 -53 159 -227 253 -385 209z"/>
</g>
</svg>
