<?xml version="1.0" standalone="no"?>
<!DOCTYPE svg PUBLIC "-//W3C//DTD SVG 20010904//EN"
 "http://www.w3.org/TR/2001/REC-SVG-20010904/DTD/svg10.dtd">
<svg version="1.0" xmlns="http://www.w3.org/2000/svg"
 viewBox="0 0 512.000000 512.000000"
 preserveAspectRatio="xMidYMid meet">

<g transform="translate(0.000000,512.000000) scale(0.100000,-0.100000)"
fill="#9e9e9e" stroke="none">
<path d="M2633 4995 c-63 -19 -127 -60 -165 -104 -18 -21 -154 -249 -302 -506
-260 -450 -270 -466 -295 -460 -162 41 -304 25 -435 -48 -23 -13 -159 -111
-302 -219 -275 -207 -383 -308 -467 -435 -79 -121 -627 -1115 -643 -1167 -82
-273 75 -562 346 -636 25 -7 51 -14 58 -16 9 -3 1 -26 -27 -76 -37 -67 -48
-109 -145 -548 -106 -478 -110 -501 -108 -554 3 -40 67 -102 116 -111 71 -14
99 4 341 221 127 113 251 223 276 244 l45 39 42 -57 c162 -222 479 -268 700
-101 l53 40 35 -30 c136 -120 352 -144 532 -59 126 59 250 220 267 346 4 26 8
52 10 59 3 7 33 0 95 -23 111 -42 292 -88 431 -111 150 -24 504 -24 659 1 121
19 296 61 393 95 l57 20 0 -35 c0 -53 34 -111 80 -134 37 -19 58 -20 380 -20
322 0 343 1 380 20 26 13 47 34 60 60 20 39 20 56 20 1270 0 1214 0 1231 -20
1270 -13 26 -34 47 -60 60 -37 19 -58 20 -380 20 -322 0 -343 -1 -380 -20 -55
-28 -80 -80 -80 -165 l0 -65 -101 0 -101 0 -599 311 -599 312 24 41 c320 554
398 693 412 736 38 118 -3 270 -96 353 -57 51 -250 163 -316 183 -58 17 -135
17 -191 -1z m215 -346 c83 -49 102 -64 102 -84 0 -13 -22 -61 -49 -107 -26
-45 -67 -115 -90 -155 l-41 -72 -128 75 c-70 41 -126 78 -125 83 5 19 175 306
186 313 23 15 42 8 145 -53z m-353 -604 c66 -38 121 -69 123 -70 1 -1 -258
-454 -577 -1006 l-580 -1004 -175 -3 -176 -2 29 47 c16 27 291 503 611 1058
651 1130 608 1057 618 1052 4 -3 61 -35 127 -72z m-778 -437 c-14 -24 -257
-446 -541 -938 -284 -492 -530 -907 -546 -922 -16 -15 -48 -32 -72 -39 -96
-25 -190 17 -234 106 -49 101 -54 88 271 673 159 284 306 544 328 577 65 96
147 170 402 362 290 217 295 220 378 222 l39 1 -25 -42z m1573 -518 l635 -330
138 0 137 0 0 -819 0 -820 -79 -30 c-434 -168 -934 -173 -1359 -15 -53 20
-162 68 -242 108 l-145 71 -685 5 c-613 4 -688 7 -715 22 -132 72 -141 257
-17 343 l44 30 702 5 c481 3 707 8 717 16 8 6 111 83 229 172 222 166 250 195
250 259 0 50 -38 110 -84 132 -82 40 -103 32 -335 -143 l-180 -136 -247 0
c-144 0 -244 4 -242 9 7 21 833 1450 838 1451 3 0 291 -149 640 -330z m1530
-1130 l0 -1050 -160 0 -160 0 0 1050 0 1050 160 0 160 0 0 -1050z m-3996 -936
c31 -16 56 -32 56 -36 0 -7 -316 -291 -329 -296 -6 -2 51 273 94 457 6 22 9
20 65 -36 32 -33 84 -73 114 -89z m744 -142 c-3 -57 -11 -89 -28 -120 -78
-139 -278 -134 -350 9 -27 51 -25 80 8 139 l27 50 174 0 174 0 -5 -78z m700 0
c-3 -57 -11 -89 -28 -120 -78 -139 -278 -134 -350 9 -15 28 -20 59 -20 114 l0
75 201 0 202 0 -5 -78z"/>
</g>
</svg>
