<?xml version="1.0" standalone="no"?>
<!DOCTYPE svg PUBLIC "-//W3C//DTD SVG 20010904//EN" "http://www.w3.org/TR/2001/REC-SVG-20010904/DTD/svg10.dtd">
<svg version="1.0" xmlns="http://www.w3.org/2000/svg"
  viewBox="0 0 512.000000 512.000000" preserveAspectRatio="xMidYMid meet">

  <g transform="translate(0.000000,512.000000) scale(0.100000,-0.100000)" fill="#54B04E" stroke="none">
    <path d="M2854 4529 c-17 -5 -299 -223 -625 -484 l-594 -475 -16 -992 c-9
-546 -14 -997 -12 -1001 3 -5 276 -225 606 -490 366 -292 617 -486 640 -494
61 -21 134 5 167 60 20 31 20 65 20 1907 0 1842 0 1876 -20 1907 -31 52 -106
80 -166 62z" />
    <path d="M4525 4186 c-54 -24 -95 -85 -95 -140 0 -13 32 -88 71 -167 157 -318
249 -613 296 -949 24 -174 24 -566 0 -740 -47 -337 -139 -632 -297 -950 -62
-125 -71 -150 -67 -184 14 -106 123 -163 217 -114 41 21 51 34 102 133 490
941 490 2029 0 2970 -51 99 -61 112 -102 133 -50 25 -82 27 -125 8z" />
    <path d="M3960 3748 c-41 -28 -70 -80 -70 -127 0 -20 21 -80 50 -144 266 -579
266 -1256 -1 -1837 -44 -96 -51 -119 -46 -156 12 -114 142 -172 235 -105 63
44 188 359 251 631 43 186 55 305 55 550 0 245 -12 364 -55 550 -63 274 -188
587 -252 632 -46 33 -123 36 -167 6z" />
    <path d="M339 3472 c-163 -43 -281 -162 -324 -329 -22 -85 -22 -1081 0 -1166
33 -126 114 -232 222 -290 98 -52 147 -57 625 -57 l436 0 6 113 c5 109 27
1426 26 1640 l0 107 -462 -1 c-404 0 -471 -2 -529 -17z" />
    <path d="M3425 3321 c-44 -20 -85 -80 -85 -126 0 -15 16 -73 34 -128 64 -188
80 -288 80 -507 0 -220 -16 -320 -80 -505 -18 -56 -34 -113 -34 -129 0 -46 39
-104 85 -126 52 -25 78 -25 132 1 35 17 48 31 72 82 36 75 82 237 107 372 26
141 26 469 0 610 -25 135 -71 297 -107 372 -24 51 -37 65 -72 82 -53 26 -80
26 -132 2z" />
  </g>
</svg>